<?xml version="1.0" encoding="utf-8"?>
<!-- Generator: Adobe Illustrator 25.2.3, SVG Export Plug-In . SVG Version: 6.00 Build 0)  -->
<svg version="1.0" id="Group" xmlns="http://www.w3.org/2000/svg" xmlns:xlink="http://www.w3.org/1999/xlink" x="0px" y="0px"
	 viewBox="0 0 296.1 298.3" enable-background="new 0 0 296.1 298.3" xml:space="preserve">
<g>
	<path fill="#FFFFFF" d="M238.7,39.9H57.4c-10.2,0-18.5,8.3-18.5,18.5v121.6c0,0,0,0,0,0c0,10.2,8.3,18.5,18.5,18.5h120.3l43.1,55.4
		c2.8,3.6,5.3,5.4,7.2,5.4c1.8,0,3-1.8,3-5.4l-0.1-54.7h0l0-0.7h7.8c10,0,18.1-7.9,18.5-17.9V58.3C257.2,48.1,248.9,39.9,238.7,39.9
		z"/>
	<path d="M238.7,28.4H57.4c-16.2,0-29.3,13.1-29.3,29.3v122.3c0,16.2,13.1,29.3,29.3,29.3h115.1l39.8,51.2
		c4.9,6.4,10.2,9.6,15.7,9.6c3.5,0,6.8-1.4,9.3-3.8c3-3,4.4-7.1,4.4-12.4l-0.1-44.7c14.9-1.5,26.3-14.1,26.3-29.2V57.6
		C268,41.5,254.9,28.4,238.7,28.4z M257.2,180.5c-0.3,9.9-8.5,17.9-18.5,17.9h-7.8l0,0.7h0l0.1,54.7c0,3.6-1.1,5.4-3,5.4
		c-1.8,0-4.4-1.8-7.2-5.4l-43.1-55.4H57.4c-10.2,0-18.5-8.3-18.5-18.5c0,0,0,0,0,0V58.3c0-10.2,8.3-18.5,18.5-18.5h181.3
		c10.2,0,18.5,8.3,18.5,18.5V180.5z"/>
</g>
<path d="M70.9,78.6c-0.1-0.4-0.2-0.9-0.3-1.3c0-4.3,6.3-7.2,10.9-7.2c2.9,0,5.2,0.9,5.9,3.5l20.4,72.2l20.2-72.2
	c0.7-2.5,2.9-3.5,5.9-3.5c4.7,0,10.9,3.1,10.9,7.2c0,0.5-0.1,0.9-0.3,1.3L119,162.4c-1.2,4-6.1,5.9-11.2,5.9s-9.9-1.9-11.2-5.9
	L70.9,78.6z"/>
<path d="M155.4,75.4c0-3,2.5-5.4,5.5-5.3c0,0,0.1,0,0.1,0h26.4c17.5,0,31.6,6.7,31.6,27.8c0,15.3-7.5,23.6-17.5,26.6l17.5,32.4
	c0.4,0.6,0.7,1.4,0.7,2.1c0,4.4-5.7,9.1-10.8,9.1c-2.4,0-4.7-1.5-6-4.1l-18.9-36.8h-11.2V162c0,3.6-4.3,5.5-8.7,5.5
	c-4.3,0-8.7-1.9-8.7-5.5V75.4z M172.7,85.2v28.3h14.7c8.7,0,14.3-3.6,14.3-14.1s-5.6-14.3-14.3-14.3L172.7,85.2z"/>
</svg>
