<svg xmlns="http://www.w3.org/2000/svg" viewBox="0 0 296.13 298.32"><defs><style>.cls-1{fill:#fff;}</style></defs><g id="Layer_2" data-name="Layer 2"><g id="Layer_1-2" data-name="Layer 1"><path d="M260,13.32a22.82,22.82,0,0,1,22.83,22.82v151A22.82,22.82,0,0,1,260,209.91h-9.66l.08,68.4c0,4.46-1.39,6.69-3.66,6.69s-5.4-2.23-8.87-6.69l-53.16-68.4H36.14a22.81,22.81,0,0,1-22.82-22.82V36.14A22.81,22.81,0,0,1,36.14,13.32H260M260,0H36.14A36.18,36.18,0,0,0,0,36.14v151a36.18,36.18,0,0,0,36.14,36.14H178.2l49.16,63.26c6.1,7.85,12.62,11.83,19.38,11.83a16.14,16.14,0,0,0,11.49-4.75c3.65-3.66,5.49-8.8,5.49-15.27l-.07-55.25a36.2,36.2,0,0,0,32.48-36V36.14A36.19,36.19,0,0,0,260,0Z"/><path class="cls-1" d="M246.74,287.89c-3.84,0-7.8-4.06-10.44-7.46L183.73,212.8H36.14A24.85,24.85,0,0,1,11.32,188V37A24.85,24.85,0,0,1,36.14,12.2H260A24.86,24.86,0,0,1,284.81,37V188A24.86,24.86,0,0,1,260,212.8h-7.65l.07,66.4c0,3.36-.73,5.8-2.18,7.26A4.85,4.85,0,0,1,246.74,287.89Z"/><path d="M260,14.2A22.83,22.83,0,0,1,282.81,37V188A22.83,22.83,0,0,1,260,210.8h-9.66l.08,68.4c0,4.46-1.39,6.69-3.66,6.69s-5.4-2.23-8.87-6.69l-53.16-68.4H36.14A22.82,22.82,0,0,1,13.32,188V37A22.82,22.82,0,0,1,36.14,14.2H260m0-4H36.14A26.86,26.86,0,0,0,9.32,37V188A26.85,26.85,0,0,0,36.14,214.8H182.76l52,66.86c4.24,5.46,8.29,8.23,12,8.23a6.76,6.76,0,0,0,4.89-2c1.84-1.84,2.78-4.76,2.77-8.67l-.07-64.4H260A26.85,26.85,0,0,0,286.81,188V37A26.86,26.86,0,0,0,260,10.2Z"/><path d="M52.81,62a9.76,9.76,0,0,1-.32-1.65c0-5.26,7.73-8.88,13.48-8.88,3.62,0,6.42,1.15,7.24,4.28l25.17,89.15,25-89.15c.82-3.13,3.62-4.28,7.23-4.28,5.76,0,13.49,3.78,13.49,8.88a7,7,0,0,1-.33,1.65L112.19,165.48c-1.48,4.93-7.56,7.23-13.81,7.23s-12.18-2.3-13.82-7.23Z"/><path d="M157.09,58.07A6.68,6.68,0,0,1,164,51.49h32.57c21.55,0,39,8.22,39,34.38,0,18.91-9.21,29.11-21.55,32.89l21.55,40a4.46,4.46,0,0,1,.82,2.64c0,5.42-7.07,11.18-13.32,11.18-3,0-5.76-1.81-7.4-5.1l-23.36-45.4H178.48V165c0,4.44-5.27,6.75-10.7,6.75-5.26,0-10.69-2.31-10.69-6.75Zm21.39,12.17v35h18.09c10.69,0,17.6-4.45,17.6-17.44s-6.91-17.6-17.6-17.6Z"/></g></g></svg>